<mxfile host="app.diagrams.net" agent="Mozilla/5.0 (Windows NT 10.0; Win64; x64) AppleWebKit/537.36 (KHTML, like Gecko) Chrome/128.0.0.0 Safari/537.36" version="24.7.12">
  <diagram name="第 1 页" id="6atQDb6ML-iiFZs-KxkJ">
    <mxGraphModel dx="1891" dy="1707" grid="1" gridSize="10" guides="1" tooltips="1" connect="1" arrows="1" fold="1" page="1" pageScale="1" pageWidth="827" pageHeight="1169" math="0" shadow="0">
      <root>
        <mxCell id="0" />
        <mxCell id="1" parent="0" />
        <mxCell id="ibVxWfqwhjhwBaZOz1QT-31" style="edgeStyle=orthogonalEdgeStyle;rounded=0;orthogonalLoop=1;jettySize=auto;html=1;" edge="1" parent="1" source="ibVxWfqwhjhwBaZOz1QT-1" target="ibVxWfqwhjhwBaZOz1QT-4">
          <mxGeometry relative="1" as="geometry" />
        </mxCell>
        <mxCell id="ibVxWfqwhjhwBaZOz1QT-1" value="devm_drm_dev_alloc()" style="text;html=1;align=center;verticalAlign=middle;resizable=0;points=[];autosize=1;strokeColor=none;fillColor=none;" vertex="1" parent="1">
          <mxGeometry x="320" y="65" width="150" height="30" as="geometry" />
        </mxCell>
        <mxCell id="ibVxWfqwhjhwBaZOz1QT-3" value="drm_dev_register()" style="text;html=1;align=center;verticalAlign=middle;resizable=0;points=[];autosize=1;strokeColor=none;fillColor=none;" vertex="1" parent="1">
          <mxGeometry x="335" y="660" width="120" height="30" as="geometry" />
        </mxCell>
        <mxCell id="ibVxWfqwhjhwBaZOz1QT-83" style="edgeStyle=orthogonalEdgeStyle;rounded=0;orthogonalLoop=1;jettySize=auto;html=1;entryX=0.5;entryY=0;entryDx=0;entryDy=0;" edge="1" parent="1" source="ibVxWfqwhjhwBaZOz1QT-4" target="ibVxWfqwhjhwBaZOz1QT-19">
          <mxGeometry relative="1" as="geometry" />
        </mxCell>
        <mxCell id="ibVxWfqwhjhwBaZOz1QT-86" value="" style="edgeStyle=orthogonalEdgeStyle;rounded=0;orthogonalLoop=1;jettySize=auto;html=1;" edge="1" parent="1" source="ibVxWfqwhjhwBaZOz1QT-4" target="ibVxWfqwhjhwBaZOz1QT-82">
          <mxGeometry relative="1" as="geometry" />
        </mxCell>
        <mxCell id="ibVxWfqwhjhwBaZOz1QT-4" value="drmm_mode_config_init()" style="text;html=1;align=center;verticalAlign=middle;resizable=0;points=[];autosize=1;strokeColor=none;fillColor=none;" vertex="1" parent="1">
          <mxGeometry x="315" y="125" width="160" height="30" as="geometry" />
        </mxCell>
        <mxCell id="ibVxWfqwhjhwBaZOz1QT-6" value="drm_universal_plane_init()" style="text;whiteSpace=wrap;html=1;" vertex="1" parent="1">
          <mxGeometry x="490" y="260" width="160" height="30" as="geometry" />
        </mxCell>
        <mxCell id="ibVxWfqwhjhwBaZOz1QT-73" style="edgeStyle=orthogonalEdgeStyle;rounded=0;orthogonalLoop=1;jettySize=auto;html=1;exitX=0.5;exitY=1;exitDx=0;exitDy=0;entryX=0.5;entryY=0;entryDx=0;entryDy=0;" edge="1" parent="1" source="ibVxWfqwhjhwBaZOz1QT-10" target="ibVxWfqwhjhwBaZOz1QT-29">
          <mxGeometry relative="1" as="geometry" />
        </mxCell>
        <mxCell id="ibVxWfqwhjhwBaZOz1QT-10" value="drm_crtc_helper_add()" style="text;whiteSpace=wrap;html=1;" vertex="1" parent="1">
          <mxGeometry x="330" y="360" width="130" height="30" as="geometry" />
        </mxCell>
        <mxCell id="ibVxWfqwhjhwBaZOz1QT-11" value="drm_crtc_init_with_planes()" style="text;whiteSpace=wrap;html=1;" vertex="1" parent="1">
          <mxGeometry x="490" y="360" width="160" height="30" as="geometry" />
        </mxCell>
        <mxCell id="ibVxWfqwhjhwBaZOz1QT-27" style="edgeStyle=orthogonalEdgeStyle;rounded=0;orthogonalLoop=1;jettySize=auto;html=1;entryX=0;entryY=0.5;entryDx=0;entryDy=0;" edge="1" parent="1" target="ibVxWfqwhjhwBaZOz1QT-19">
          <mxGeometry relative="1" as="geometry">
            <mxPoint x="210" y="275" as="sourcePoint" />
          </mxGeometry>
        </mxCell>
        <mxCell id="ibVxWfqwhjhwBaZOz1QT-53" value="传入" style="edgeLabel;html=1;align=center;verticalAlign=middle;resizable=0;points=[];" vertex="1" connectable="0" parent="ibVxWfqwhjhwBaZOz1QT-27">
          <mxGeometry x="-0.1885" y="1" relative="1" as="geometry">
            <mxPoint as="offset" />
          </mxGeometry>
        </mxCell>
        <mxCell id="ibVxWfqwhjhwBaZOz1QT-16" value="&lt;span style=&quot;text-align: left;&quot;&gt;struct drm_plane_helper_funcs&lt;/span&gt;&lt;div&gt;&lt;span style=&quot;text-align: left;&quot;&gt;struct drm_plane_funcs&lt;/span&gt;&lt;span style=&quot;text-align: left;&quot;&gt;&lt;br&gt;&lt;/span&gt;&lt;/div&gt;" style="ellipse;whiteSpace=wrap;html=1;" vertex="1" parent="1">
          <mxGeometry x="-30" y="230" width="240" height="90" as="geometry" />
        </mxCell>
        <mxCell id="ibVxWfqwhjhwBaZOz1QT-45" style="edgeStyle=orthogonalEdgeStyle;rounded=0;orthogonalLoop=1;jettySize=auto;html=1;entryX=0;entryY=0.5;entryDx=0;entryDy=0;" edge="1" parent="1" source="ibVxWfqwhjhwBaZOz1QT-18" target="ibVxWfqwhjhwBaZOz1QT-10">
          <mxGeometry relative="1" as="geometry" />
        </mxCell>
        <mxCell id="ibVxWfqwhjhwBaZOz1QT-52" value="传入" style="edgeLabel;html=1;align=center;verticalAlign=middle;resizable=0;points=[];" vertex="1" connectable="0" parent="ibVxWfqwhjhwBaZOz1QT-45">
          <mxGeometry x="-0.2184" relative="1" as="geometry">
            <mxPoint as="offset" />
          </mxGeometry>
        </mxCell>
        <mxCell id="ibVxWfqwhjhwBaZOz1QT-18" value="&lt;div&gt;struct drm_crtc_helper_funcs&lt;/div&gt;struct drm_crtc_funcs" style="ellipse;whiteSpace=wrap;html=1;" vertex="1" parent="1">
          <mxGeometry x="-10" y="335" width="200" height="80" as="geometry" />
        </mxCell>
        <mxCell id="ibVxWfqwhjhwBaZOz1QT-35" value="" style="edgeStyle=orthogonalEdgeStyle;rounded=0;orthogonalLoop=1;jettySize=auto;html=1;" edge="1" parent="1" source="ibVxWfqwhjhwBaZOz1QT-19" target="ibVxWfqwhjhwBaZOz1QT-6">
          <mxGeometry relative="1" as="geometry" />
        </mxCell>
        <mxCell id="ibVxWfqwhjhwBaZOz1QT-76" style="edgeStyle=orthogonalEdgeStyle;rounded=0;orthogonalLoop=1;jettySize=auto;html=1;exitX=0.5;exitY=1;exitDx=0;exitDy=0;entryX=0.5;entryY=0;entryDx=0;entryDy=0;" edge="1" parent="1" source="ibVxWfqwhjhwBaZOz1QT-19" target="ibVxWfqwhjhwBaZOz1QT-10">
          <mxGeometry relative="1" as="geometry" />
        </mxCell>
        <mxCell id="ibVxWfqwhjhwBaZOz1QT-19" value="drm_plane_helper_add()" style="text;whiteSpace=wrap;html=1;" vertex="1" parent="1">
          <mxGeometry x="325" y="260" width="140" height="30" as="geometry" />
        </mxCell>
        <mxCell id="ibVxWfqwhjhwBaZOz1QT-65" style="edgeStyle=orthogonalEdgeStyle;rounded=0;orthogonalLoop=1;jettySize=auto;html=1;exitX=0.5;exitY=1;exitDx=0;exitDy=0;entryX=0.5;entryY=0;entryDx=0;entryDy=0;" edge="1" parent="1" source="ibVxWfqwhjhwBaZOz1QT-29" target="ibVxWfqwhjhwBaZOz1QT-64">
          <mxGeometry relative="1" as="geometry" />
        </mxCell>
        <mxCell id="ibVxWfqwhjhwBaZOz1QT-29" value="drm_encoder_init()" style="text;whiteSpace=wrap;html=1;" vertex="1" parent="1">
          <mxGeometry x="335" y="430" width="120" height="30" as="geometry" />
        </mxCell>
        <mxCell id="ibVxWfqwhjhwBaZOz1QT-44" value="" style="endArrow=classic;html=1;rounded=0;exitX=1;exitY=0.5;exitDx=0;exitDy=0;entryX=0;entryY=0.5;entryDx=0;entryDy=0;" edge="1" parent="1" source="ibVxWfqwhjhwBaZOz1QT-10" target="ibVxWfqwhjhwBaZOz1QT-11">
          <mxGeometry width="50" height="50" relative="1" as="geometry">
            <mxPoint x="390" y="370" as="sourcePoint" />
            <mxPoint x="440" y="320" as="targetPoint" />
          </mxGeometry>
        </mxCell>
        <mxCell id="ibVxWfqwhjhwBaZOz1QT-54" value="msxfb初始化流程：" style="text;html=1;align=center;verticalAlign=middle;resizable=0;points=[];autosize=1;strokeColor=none;fillColor=none;" vertex="1" parent="1">
          <mxGeometry x="-140" y="-20" width="130" height="30" as="geometry" />
        </mxCell>
        <mxCell id="ibVxWfqwhjhwBaZOz1QT-68" style="edgeStyle=orthogonalEdgeStyle;rounded=0;orthogonalLoop=1;jettySize=auto;html=1;exitX=0.5;exitY=1;exitDx=0;exitDy=0;entryX=0.5;entryY=0;entryDx=0;entryDy=0;" edge="1" parent="1" source="ibVxWfqwhjhwBaZOz1QT-64" target="ibVxWfqwhjhwBaZOz1QT-67">
          <mxGeometry relative="1" as="geometry" />
        </mxCell>
        <mxCell id="ibVxWfqwhjhwBaZOz1QT-72" style="edgeStyle=orthogonalEdgeStyle;rounded=0;orthogonalLoop=1;jettySize=auto;html=1;exitX=1;exitY=0.5;exitDx=0;exitDy=0;entryX=0;entryY=0.5;entryDx=0;entryDy=0;" edge="1" parent="1" source="ibVxWfqwhjhwBaZOz1QT-64" target="ibVxWfqwhjhwBaZOz1QT-71">
          <mxGeometry relative="1" as="geometry" />
        </mxCell>
        <mxCell id="ibVxWfqwhjhwBaZOz1QT-64" value="&lt;span style=&quot;text-align: left; text-wrap: nowrap;&quot;&gt;drm_vblank_init()&lt;/span&gt;" style="text;html=1;align=center;verticalAlign=middle;whiteSpace=wrap;rounded=0;" vertex="1" parent="1">
          <mxGeometry x="345" y="480" width="100" height="30" as="geometry" />
        </mxCell>
        <mxCell id="ibVxWfqwhjhwBaZOz1QT-70" style="edgeStyle=orthogonalEdgeStyle;rounded=0;orthogonalLoop=1;jettySize=auto;html=1;exitX=0.5;exitY=1;exitDx=0;exitDy=0;entryX=0.5;entryY=0;entryDx=0;entryDy=0;" edge="1" parent="1" source="ibVxWfqwhjhwBaZOz1QT-67" target="ibVxWfqwhjhwBaZOz1QT-69">
          <mxGeometry relative="1" as="geometry" />
        </mxCell>
        <mxCell id="ibVxWfqwhjhwBaZOz1QT-67" value="&lt;span style=&quot;text-wrap: nowrap;&quot;&gt;mxsfb_attach_bridge()&lt;/span&gt;" style="text;html=1;align=center;verticalAlign=middle;whiteSpace=wrap;rounded=0;" vertex="1" parent="1">
          <mxGeometry x="325" y="530" width="140" height="30" as="geometry" />
        </mxCell>
        <mxCell id="ibVxWfqwhjhwBaZOz1QT-69" value="drm_mode_config_reset()" style="text;html=1;align=center;verticalAlign=middle;whiteSpace=wrap;rounded=0;" vertex="1" parent="1">
          <mxGeometry x="342.5" y="580" width="105" height="30" as="geometry" />
        </mxCell>
        <mxCell id="ibVxWfqwhjhwBaZOz1QT-71" value="drm_crtc_vblank_off()" style="text;whiteSpace=wrap;html=1;align=center;verticalAlign=middle;" vertex="1" parent="1">
          <mxGeometry x="490" y="480" width="120" height="30" as="geometry" />
        </mxCell>
        <mxCell id="ibVxWfqwhjhwBaZOz1QT-77" value="drm_kms_helper_poll_init" style="text;whiteSpace=wrap;html=1;align=center;verticalAlign=middle;" vertex="1" parent="1">
          <mxGeometry x="325" y="624.5" width="150" height="30" as="geometry" />
        </mxCell>
        <mxCell id="ibVxWfqwhjhwBaZOz1QT-79" style="edgeStyle=orthogonalEdgeStyle;rounded=0;orthogonalLoop=1;jettySize=auto;html=1;" edge="1" parent="1" source="ibVxWfqwhjhwBaZOz1QT-78" target="ibVxWfqwhjhwBaZOz1QT-1">
          <mxGeometry relative="1" as="geometry" />
        </mxCell>
        <mxCell id="ibVxWfqwhjhwBaZOz1QT-80" value="传入" style="edgeLabel;html=1;align=center;verticalAlign=middle;resizable=0;points=[];" vertex="1" connectable="0" parent="ibVxWfqwhjhwBaZOz1QT-79">
          <mxGeometry x="-0.0556" y="-2" relative="1" as="geometry">
            <mxPoint as="offset" />
          </mxGeometry>
        </mxCell>
        <mxCell id="ibVxWfqwhjhwBaZOz1QT-78" value="struct drm_driver" style="ellipse;whiteSpace=wrap;html=1;" vertex="1" parent="1">
          <mxGeometry x="-10" y="40" width="200" height="80" as="geometry" />
        </mxCell>
        <mxCell id="ibVxWfqwhjhwBaZOz1QT-81" value="struct drm_mode_config_funcs&lt;div&gt;struct drm_mode_config_helper_funcs&lt;/div&gt;" style="ellipse;whiteSpace=wrap;html=1;" vertex="1" parent="1">
          <mxGeometry x="-20" y="140" width="220" height="80" as="geometry" />
        </mxCell>
        <mxCell id="ibVxWfqwhjhwBaZOz1QT-82" value="mode_config.funcs =&amp;nbsp;&lt;div&gt;mode_config.helper_private =&amp;nbsp;&lt;/div&gt;" style="text;html=1;align=center;verticalAlign=middle;resizable=0;points=[];autosize=1;strokeColor=none;fillColor=none;" vertex="1" parent="1">
          <mxGeometry x="510" y="120" width="190" height="40" as="geometry" />
        </mxCell>
        <mxCell id="ibVxWfqwhjhwBaZOz1QT-85" style="edgeStyle=orthogonalEdgeStyle;rounded=0;orthogonalLoop=1;jettySize=auto;html=1;exitX=1;exitY=0.5;exitDx=0;exitDy=0;entryX=0.492;entryY=1.002;entryDx=0;entryDy=0;entryPerimeter=0;" edge="1" parent="1" source="ibVxWfqwhjhwBaZOz1QT-81" target="ibVxWfqwhjhwBaZOz1QT-82">
          <mxGeometry relative="1" as="geometry" />
        </mxCell>
        <mxCell id="ibVxWfqwhjhwBaZOz1QT-87" value="全局变量" style="text;html=1;align=center;verticalAlign=middle;resizable=0;points=[];autosize=1;strokeColor=none;fillColor=none;" vertex="1" parent="1">
          <mxGeometry x="55" width="70" height="30" as="geometry" />
        </mxCell>
      </root>
    </mxGraphModel>
  </diagram>
</mxfile>
